# xmcd CD database file
#
# Track frame offsets:
#	150
#	20863
#	49501
#	71570
#	96119
#	118576
#	141180
#	164299
#	186078
#	206348
#
# Disc length: 3074 seconds
#
# Revision: 0
# Processed by: cddbd v1.5.1PL0 Copyright (c) Steve Scherf et al.
# Submitted via: CDex 1.51
#
DISCID=890c000a
DTITLE=Paicu - Paicu
DYEAR=2004
DGENRE=New Age
TTITLE0=Innocent Tracks
TTITLE1=Tanaiku Stream
TTITLE2=Everlasting Hosa
TTITLE3=Lone Star
TTITLE4=Waiting For The Stars To Come Out
TTITLE5=Sunrise
TTITLE6=If
TTITLE7=Mt Ta
TTITLE8=Fire Of Kuba
TTITLE9=Paicu Tiaki Ana
EXTD=YEAR: 2004
EXTT0=
EXTT1=
EXTT2=
EXTT3=
EXTT4=
EXTT5=
EXTT6=
EXTT7=
EXTT8=
EXTT9=
PLAYORDER=
